#!OML:ASF E:\motion texture\Top Level 1\Subject 1\Session 1\male.ASF
:FULLY-SPECIFIED
:DEGREES
439
root 7.75719 18.0605 5.60757 144.962 -94.0065 -146.203
lowerback 5.61917 -5.10045 -4.7626
upperback -0.755623 -7.0599 2.50479
thorax -3.03089 -3.42323 5.78442
lowerneck -22.8913 -1.69879 -4.04463
upperneck 17.0583 -2.09676 4.87216
head 9.22246 -0.694156 2.04809
rclavicle -2.49785e-014 3.18055e-015
rhumerus -71.4738 8.77793 -68.1084
rradius 57.2813
rwrist -6.71419
rhand -13.1247 -9.265
rfingers 7.12502
rthumb 12.973 -38.8417
lclavicle -2.49785e-014 3.18055e-015
lhumerus 2.77583 -13.3865 78.2769
lradius 84.7187
lwrist 4.75281
lhand -15.8999 4.28161
lfingers 7.12502
lthumb 10.2967 34.0096
rfemur -82.1029 -5.93171 21.2494
rtibia 88.079
rfoot 5.50694 117.307
rtoes 10.8681
lfemur 6.38445 -6.4414 -26.8601
ltibia 18.0609
lfoot 528.41 -185.451
ltoes -3.27901
440
root 7.62426 18.056 5.59678 143.882 -94.0332 -144.824
lowerback 5.39795 -5.08203 -4.79082
upperback -0.817693 -7.0282 2.50391
thorax -2.97254 -3.40765 5.77722
lowerneck -22.8778 -1.72496 -4.06902
upperneck 17.0139 -2.11932 4.85666
head 9.20582 -0.708201 2.04297
rclavicle -1.24613e-014 5.56597e-015
rhumerus -70.9388 8.7019 -68.3139
rradius 57.3106
rwrist -6.67977
rhand -13.165 -9.19505
rfingers 7.12502
rthumb 12.9341 -38.7742
lclavicle -1.24613e-014 5.56597e-015
lhumerus 2.5191 -13.3396 78.3397
lradius 84.3858
lwrist 4.77357
lhand -15.8815 4.29045
lfingers 7.12502
lthumb 10.3144 34.0175
rfemur -81.3017 -5.97727 21.1657
rtibia 89.1459
rfoot 2.15913 101.834
rtoes 10.8203
lfemur 6.55432 -6.38217 -26.8691
ltibia 17.9884
lfoot 528.459 -185.613
ltoes -3.81928
441
root 7.49 18.0502 5.58573 143.034 -94.0708 -143.65
lowerback 5.15249 -5.06303 -4.81346
upperback -0.890705 -6.99432 2.50482
thorax -2.9127 -3.39092 5.767
lowerneck -22.8572 -1.75553 -4.09715
upperneck 16.9724 -2.14699 4.84051
head 9.18925 -0.725056 2.03752
rclavicle -4.49005e-014 -1.03368e-014
rhumerus -70.364 8.61971 -68.5573
rradius 57.3591
rwrist -6.64599
rhand -13.1969 -9.10944
rfingers 7.12502
rthumb 12.9034 -38.6905
lclavicle -4.49005e-014 -1.03368e-014
lhumerus 2.21978 -13.3171 78.4677
lradius 84.0229
lwrist 4.76349
lhand -15.8608 4.2769
lfingers 7.12502
lthumb 10.3344 34.003
rfemur -80.3954 -6.03828 21.0452
rtibia 89.1867
rfoot -151.371 94.0431
rtoes 10.7511
lfemur 6.71528 -6.33537 -26.873
ltibia 17.8947
lfoot 528.496 -185.767
ltoes -4.34763
442
root 7.35419 18.0429 5.57429 142.492 -94.1234 -142.763
lowerback 4.88077 -5.04519 -4.82974
upperback -0.969962 -6.96049 2.50743
thorax -2.84511 -3.3745 5.75283
lowerneck -22.8354 -1.79133 -4.13117
upperneck 16.9316 -2.18103 4.82896
head 9.17315 -0.744767 2.03373
rclavicle -1.16376e-013 2.54444e-014
rhumerus -69.7424 8.52619 -68.8366
rradius 57.4168
rwrist -6.61646
rhand -13.2223 -9.02118
rfingers 7.12502
rthumb 12.8789 -38.6038
lclavicle -1.16376e-013 2.54444e-014
lhumerus 1.89204 -13.3182 78.6545
lradius 83.626
lwrist 4.70089
lhand -15.8192 4.24549
lfingers 7.12502
lthumb 10.3746 33.9696
rfemur -79.3867 -6.11743 20.8897
rtibia 88.1476
rfoot -166.402 109.445
rtoes 10.7043
lfemur 6.87233 -6.30327 -26.869
ltibia 17.7795
lfoot 528.523 -185.917
ltoes -4.85125
443
root 7.21685 18.034 5.56242 142.26 -94.1946 -142.167
lowerback 4.5877 -5.0291 -4.84156
upperback -1.05296 -6.92787 2.5113
thorax -2.76961 -3.35902 5.73577
lowerneck -22.8232 -1.83376 -4.17106
upperneck 16.8924 -2.22277 4.82119
head 9.15981 -0.76788 2.03116
rclavicle -4.69877e-014 1.19271e-014
rhumerus -69.0698 8.42116 -69.1495
rradius 57.4782
rwrist -6.60009
rhand -13.247 -8.93618
rfingers 7.12502
rthumb 12.855 -38.5203
lclavicle -4.69877e-014 1.19271e-014
lhumerus 1.54079 -13.3431 78.8931
lradius 83.1937
lwrist 4.57889
lhand -15.7755 4.20149
lfingers 7.12502
lthumb 10.4167 33.9234
rfemur -78.2832 -6.21866 20.7019
rtibia 86.1491
rfoot -167.638 124.992
rtoes 10.704
lfemur 7.02831 -6.28836 -26.8598
ltibia 17.6437
lfoot 528.539 -186.068
ltoes -5.33169
444
root 7.07784 18.0232 5.55007 142.347 -94.2866 -141.878
lowerback 4.27716 -5.01526 -4.85146
upperback -1.1424 -6.89751 2.51597
thorax -2.69078 -3.34473 5.71739
lowerneck -22.7974 -1.88206 -4.21799
upperneck 16.8475 -2.27201 4.81972
head 9.14269 -0.794446 2.03079
rclavicle -4.7932e-014 7.95139e-016
rhumerus -68.3566 8.30607 -69.4941
rradius 57.5363
rwrist -6.59678
rhand -13.2834 -8.87292
rfingers 7.12502
rthumb 12.82 -38.4593
lclavicle -4.7932e-014 7.95139e-016
lhumerus 1.15549 -13.3957 79.1816
lradius 82.7244
lwrist 4.39463
lhand -15.7293 4.15067
lfingers 7.12502
lthumb 10.4613 33.8704
rfemur -77.0802 -6.34077 20.4805
rtibia 83.4749
rfoot -167.763 140.501
rtoes 10.7925
lfemur 7.16768 -6.2732 -26.8384
ltibia 17.5249
lfoot 528.532 -186.237
ltoes -5.7854
445
root 6.93722 18.0105 5.53724 142.744 -94.397 -141.894
lowerback 3.96085 -5.00158 -4.85747
upperback -1.23738 -6.86705 2.52152
thorax -2.61477 -3.33028 5.69785
lowerneck -22.7617 -1.9377 -4.27296
upperneck 16.8 -2.33118 4.82771
head 9.12374 -0.825258 2.03359
rclavicle 4.008e-014 -1.11319e-014
rhumerus -67.6071 8.1779 -69.8675
rradius 57.5875
rwrist -6.60459
rhand -13.3361 -8.84521
rfingers 7.12502
rthumb 12.7692 -38.4347
lclavicle 4.008e-014 -1.11319e-014
lhumerus 0.73959 -13.48 79.5175
lradius 82.2123
lwrist 4.15843
lhand -15.6852 4.10297
lfingers 7.12502
lthumb 10.5039 33.8205
rfemur -75.7769 -6.47957 20.2312
rtibia 80.5521
rfoot -167.541 155.927
rtoes 11.0049
lfemur 7.31334 -6.25992 -26.8027
ltibia 17.3974
lfoot 528.516 -186.423
ltoes -6.17449
446
root 6.7948 17.9957 5.52386 143.407 -94.533 -142.178
lowerback 3.64447 -4.98869 -4.86744
upperback -1.3351 -6.838 2.52605
thorax -2.54101 -3.31636 5.67994
lowerneck -22.7173 -2.00074 -4.33484
upperneck 16.7501 -2.40093 4.84612
head 9.10327 -0.860436 2.03962
rclavicle 5.1361e-014 -2.70347e-014
rhumerus -66.8229 8.0355 -70.2669
rradius 57.6297
rwrist -6.61881
rhand -13.3994 -8.86218
rfingers 7.12502
rthumb 12.7081 -38.4555
lclavicle 5.1361e-014 -2.70347e-014
lhumerus 0.295253 -13.6009 79.8968
lradius 81.657
lwrist 3.89393
lhand -15.6349 4.07174
lfingers 7.12502
lthumb 10.5523 33.7868
rfemur -74.3711 -6.63894 19.9489
rtibia 77.8871
rfoot -167.12 171.261
rtoes 11.3553
lfemur 7.45407 -6.23922 -26.7546
ltibia 17.2941
lfoot 528.48 -186.638
ltoes -6.53242
447
root 6.65043 17.9786 5.5097 144.322 -94.6918 -142.725
lowerback 3.3293 -4.97677 -4.87996
upperback -1.43335 -6.81053 2.52851
thorax -2.4682 -3.30319 5.66178
lowerneck -22.6576 -2.07028 -4.39956
upperneck 16.6975 -2.48159 4.87452
head 9.08006 -0.900019 2.04803
rclavicle 6.73383e-015 -3.18055e-015
rhumerus -66.0026 7.87884 -70.6937
rradius 57.6531
rwrist -6.63528
rhand -13.4829 -8.91501
rfingers 7.12502
rthumb 12.6277 -38.5133
lclavicle 6.73383e-015 -3.18055e-015
lhumerus -0.1756 -13.759 80.3145
lradius 81.0551
lwrist 3.62607
lhand -15.5926 4.05838
lfingers 7.12502
lthumb 10.5931 33.7714
rfemur -72.8593 -6.81349 19.6416
rtibia 75.5011
rfoot -166.461 171.291
rtoes 11.8611
lfemur 7.60671 -6.20863 -26.6874
ltibia 17.1997
lfoot 528.431 -186.879
ltoes -6.87743
